<?xml version="1.0" encoding="utf-8"?>
<!-- Generator: Adobe Illustrator 16.0.4, SVG Export Plug-In . SVG Version: 6.00 Build 0)  -->
<!DOCTYPE svg PUBLIC "-//W3C//DTD SVG 1.1//EN" "http://www.w3.org/Graphics/SVG/1.1/DTD/svg11.dtd">
<svg version="1.1" id="Layer_1" xmlns="http://www.w3.org/2000/svg" xmlns:xlink="http://www.w3.org/1999/xlink" x="0px" y="0px"
	 width="93.566px" height="93.566px" viewBox="0 0 93.566 93.566" enable-background="new 0 0 93.566 93.566" xml:space="preserve">
<circle fill="#E16426" cx="46.783" cy="46.783" r="46.783"/>
<rect x="25.822" y="25.302" fill="#FFFFFF" width="42.512" height="15.276"/>
<rect x="25.822" y="52.868" fill="#FFFFFF" width="42.512" height="15.277"/>
<path fill="#944022" d="M63.175,20.996H21.658v7.903H62.99c2.296,0,4.16,1.863,4.16,4.159s-1.863,4.157-4.16,4.157H21.658v7.903
	h41.517c6.661,0,12.061-5.401,12.061-12.062C75.234,26.397,69.836,20.996,63.175,20.996z"/>
<path fill="#944022" d="M63.175,48.446H21.658v7.9H62.99c2.296,0,4.16,1.862,4.16,4.161c0,2.294-1.863,4.157-4.16,4.157H21.658
	v7.903h41.517c6.661,0,12.061-5.399,12.061-12.062C75.234,53.848,69.836,48.446,63.175,48.446z"/>
</svg>
