<?xml version="1.0" encoding="utf-8"?>
<!-- Generator: Adobe Illustrator 16.0.4, SVG Export Plug-In . SVG Version: 6.00 Build 0)  -->
<!DOCTYPE svg PUBLIC "-//W3C//DTD SVG 1.1//EN" "http://www.w3.org/Graphics/SVG/1.1/DTD/svg11.dtd">
<svg version="1.1" id="Layer_1" xmlns="http://www.w3.org/2000/svg" xmlns:xlink="http://www.w3.org/1999/xlink" x="0px" y="0px"
	 width="392.55px" height="93.566px" viewBox="0 0 392.55 93.566" enable-background="new 0 0 392.55 93.566" xml:space="preserve">
<g>
	<path fill="#565656" d="M109.723,68.786v-44h9.429c2.03,0,3.846,0.21,5.45,0.639c1.604,0.423,3.008,1.07,4.211,1.937
		c1.203,0.867,2.128,2.014,2.773,3.436c0.648,1.427,0.973,3.089,0.973,4.986c0,2.75-0.583,4.844-1.745,6.276
		c-1.161,1.431-2.954,2.484-5.376,3.153c2.62,0.87,4.583,2.141,5.893,3.822c1.31,1.673,1.963,4.07,1.963,7.179
		c0,3.88-1.125,6.943-3.376,9.196c-2.249,2.248-5.315,3.377-9.193,3.377H109.723z M116.009,43.642h3.143
		c5.237,0,7.857-2.618,7.857-7.859c0-0.865-0.107-1.632-0.32-2.297c-0.212-0.659-0.466-1.213-0.762-1.657
		c-0.292-0.441-0.74-0.811-1.338-1.114c-0.597-0.305-1.142-0.536-1.63-0.701c-0.491-0.164-1.192-0.282-2.101-0.356
		c-0.908-0.071-1.665-0.118-2.27-0.136c-0.606-0.013-1.467-0.022-2.579-0.022V43.642z M116.009,64.07h3.143
		c2.717,0,4.705-0.626,5.966-1.878c1.26-1.252,1.891-3.249,1.891-5.979c0-2.729-0.631-4.726-1.891-5.978
		c-1.261-1.257-3.249-1.88-5.966-1.88h-3.143V64.07z"/>
	<path fill="#565656" d="M149.204,69.227c-2.21,0-4.105-0.339-5.685-1.011c-1.581-0.668-2.836-1.653-3.769-2.946
		c-0.933-1.288-1.613-2.806-2.037-4.551c-0.426-1.745-0.638-3.771-0.638-6.081V38.682c0-2.309,0.212-4.323,0.638-6.042
		c0.424-1.716,1.104-3.209,2.037-4.479c0.932-1.268,2.188-2.222,3.769-2.858c1.579-0.64,3.474-0.96,5.685-0.96
		c4.288,0,7.382,1.227,9.281,3.682c1.898,2.458,2.848,6.008,2.848,10.658v15.956c0,2.278-0.215,4.29-0.648,6.03
		c-0.434,1.744-1.117,3.268-2.05,4.566c-0.934,1.304-2.191,2.294-3.771,2.972C153.286,68.883,151.397,69.227,149.204,69.227z
		 M144.625,62.079c0.842,1.329,2.368,1.992,4.579,1.992c2.21,0,3.736-0.663,4.58-1.992c0.842-1.324,1.263-3.28,1.263-5.866V37.112
		c0-2.555-0.416-4.459-1.252-5.724c-0.834-1.257-2.366-1.888-4.591-1.888c-2.226,0-3.756,0.631-4.59,1.888
		c-0.835,1.265-1.254,3.169-1.254,5.724v19.101C143.359,58.799,143.782,60.755,144.625,62.079z"/>
	<path fill="#565656" d="M178.177,69.227c-2.209,0-4.102-0.339-5.684-1.011c-1.58-0.668-2.837-1.653-3.769-2.946
		c-0.934-1.288-1.614-2.806-2.04-4.551c-0.426-1.745-0.636-3.771-0.636-6.081V38.682c0-2.309,0.21-4.323,0.636-6.042
		c0.426-1.716,1.106-3.209,2.04-4.479c0.931-1.268,2.188-2.222,3.769-2.858c1.582-0.64,3.475-0.96,5.684-0.96
		c4.29,0,7.381,1.227,9.281,3.682c1.898,2.458,2.848,6.008,2.848,10.658v15.956c0,2.278-0.216,4.29-0.649,6.03
		c-0.433,1.744-1.116,3.268-2.05,4.566c-0.933,1.304-2.19,2.294-3.771,2.972C182.256,68.883,180.371,69.227,178.177,69.227z
		 M173.597,62.079c0.844,1.329,2.371,1.992,4.58,1.992s3.737-0.663,4.581-1.992c0.841-1.324,1.263-3.28,1.263-5.866V37.112
		c0-2.555-0.416-4.459-1.25-5.724c-0.833-1.257-2.368-1.888-4.593-1.888c-2.224,0-3.756,0.631-4.59,1.888
		c-0.836,1.265-1.252,3.169-1.252,5.724v19.101C172.334,58.799,172.756,60.755,173.597,62.079z"/>
	<path fill="#565656" d="M195.806,68.786v-44h6.285v18.856l9.43-18.856h7.859l-9.457,17.283l11.025,26.716h-7.856l-7.859-20.431
		l-3.142,6.283v14.147H195.806z"/>
	<path fill="#565656" d="M234.723,69.227c-3.962,0-6.984-1.166-9.073-3.485c-2.086-2.329-3.254-5.506-3.497-9.53l6.286-1.574
		c0.308,6.291,2.404,9.432,6.284,9.432c3.142,0,4.716-1.57,4.716-4.717c0-0.929-0.129-1.796-0.383-2.586
		c-0.254-0.794-0.645-1.523-1.164-2.191c-0.527-0.656-1.002-1.189-1.426-1.591c-0.425-0.405-1.008-0.897-1.743-1.488l-7.856-6.285
		c-1.439-1.128-2.592-2.565-3.449-4.308c-0.859-1.744-1.29-3.728-1.29-5.955c0-3.238,1.008-5.819,3.02-7.733
		c2.015-1.914,4.681-2.874,8.005-2.874c3.566,0,6.405,0.875,8.506,2.614c2.104,1.745,3.402,4.213,3.894,7.402
		c0.048,0.344,0.104,0.821,0.17,1.424l-6.282,1.573c-0.018-0.279-0.059-0.695-0.123-1.252c-0.28-1.997-0.906-3.598-1.879-4.801
		c-0.975-1.203-2.403-1.804-4.285-1.804c-1.506,0-2.668,0.42-3.489,1.262c-0.816,0.844-1.224,2.02-1.224,3.525
		c0,2.471,1.047,4.542,3.141,6.212l7.859,6.287c4.189,3.388,6.282,7.437,6.282,12.152c0,3.224-0.991,5.743-2.98,7.564
		C240.751,68.319,238.078,69.227,234.723,69.227z"/>
	<path fill="#565656" d="M250.315,68.786v-44h6.283v18.856h11.002V24.786h6.283v44h-6.283V48.355h-11.002v20.431H250.315z"/>
	<path fill="#565656" d="M280.17,68.786v-44h17.286V29.5h-10.999v14.143h7.856v4.713h-7.856V64.07h10.999v4.715H280.17z"/>
	<path fill="#565656" d="M301.31,68.786v-44h6.283V64.07h11.003v4.715H301.31z"/>
	<path fill="#565656" d="M321.518,68.786v-44h17.286V29.5h-11.001v14.143h7.855v4.713h-7.855v20.431H321.518z"/>
	<path fill="#565656" d="M339.644,68.786V62.5h6.283v6.286H339.644z"/>
	<path fill="#565656" d="M351.228,68.786V64.07c1.359,0,2.417-0.072,3.18-0.221c0.761-0.149,1.388-0.461,1.878-0.944
		c0.489-0.483,0.818-1.115,0.982-1.895c0.164-0.774,0.244-1.852,0.244-3.228V24.786h6.286v32.997c0,1.997-0.131,3.649-0.394,4.947
		c-0.262,1.304-0.741,2.428-1.436,3.377c-0.696,0.949-1.661,1.632-2.897,2.052c-1.237,0.416-2.805,0.626-4.7,0.626H351.228z"/>
	<path fill="#565656" d="M381.553,69.227c-3.964,0-6.987-1.166-9.075-3.485c-2.086-2.329-3.251-5.506-3.497-9.53l6.283-1.574
		c0.313,6.291,2.406,9.432,6.289,9.432c3.141,0,4.711-1.57,4.711-4.717c0-0.929-0.126-1.796-0.383-2.586
		c-0.252-0.794-0.638-1.523-1.165-2.191c-0.522-0.656-0.997-1.189-1.421-1.591c-0.427-0.405-1.008-0.897-1.742-1.488l-7.859-6.285
		c-1.442-1.128-2.589-2.565-3.451-4.308c-0.858-1.744-1.288-3.728-1.288-5.955c0-3.238,1.007-5.819,3.021-7.733
		c2.01-1.914,4.682-2.874,8.001-2.874c3.572,0,6.404,0.875,8.509,2.614c2.104,1.745,3.401,4.213,3.893,7.402
		c0.049,0.344,0.108,0.821,0.172,1.424l-6.286,1.573c-0.016-0.279-0.055-0.695-0.124-1.252c-0.277-1.997-0.902-3.598-1.877-4.801
		c-0.973-1.203-2.402-1.804-4.286-1.804c-1.505,0-2.665,0.42-3.483,1.262c-0.821,0.844-1.229,2.02-1.229,3.525
		c0,2.471,1.047,4.542,3.144,6.212l7.856,6.287c4.19,3.388,6.286,7.437,6.286,12.152c0,3.224-0.996,5.743-2.981,7.564
		C387.577,68.319,384.907,69.227,381.553,69.227z"/>
</g>
<circle fill="#E16426" cx="46.783" cy="46.783" r="46.783"/>
<rect x="25.822" y="25.302" fill="#FFFFFF" width="42.512" height="15.276"/>
<rect x="25.822" y="52.868" fill="#FFFFFF" width="42.512" height="15.277"/>
<path fill="#944022" d="M63.175,20.996H21.658v7.903H62.99c2.296,0,4.16,1.863,4.16,4.159s-1.863,4.159-4.16,4.159H21.658v7.903
	h41.517c6.661,0,12.059-5.401,12.059-12.062C75.234,26.397,69.836,20.996,63.175,20.996z"/>
<path fill="#944022" d="M63.175,48.446H21.658v7.9H62.99c2.296,0,4.16,1.864,4.16,4.163c0,2.294-1.863,4.157-4.16,4.157H21.658
	v7.903h41.517c6.661,0,12.059-5.399,12.059-12.06C75.234,53.848,69.836,48.446,63.175,48.446z"/>
</svg>
