<?xml version="1.0" encoding="UTF-8" standalone="no"?>
<!-- Generator: Adobe Illustrator 16.0.4, SVG Export Plug-In . SVG Version: 6.00 Build 0)  -->

<svg
   xmlns:dc="http://purl.org/dc/elements/1.1/"
   xmlns:cc="http://creativecommons.org/ns#"
   xmlns:rdf="http://www.w3.org/1999/02/22-rdf-syntax-ns#"
   xmlns:svg="http://www.w3.org/2000/svg"
   xmlns="http://www.w3.org/2000/svg"
   xmlns:sodipodi="http://sodipodi.sourceforge.net/DTD/sodipodi-0.dtd"
   xmlns:inkscape="http://www.inkscape.org/namespaces/inkscape"
   version="1.1"
   id="Layer_1"
   x="0px"
   y="0px"
   width="93.566px"
   height="93.566px"
   viewBox="0 0 93.566 93.566"
   enable-background="new 0 0 93.566 93.566"
   xml:space="preserve"
   inkscape:version="0.91 r13725"
   sodipodi:docname="bookshelf-icon-inverted.svg"><metadata
     id="metadata17"><rdf:RDF><cc:Work
         rdf:about=""><dc:format>image/svg+xml</dc:format><dc:type
           rdf:resource="http://purl.org/dc/dcmitype/StillImage" /><dc:title></dc:title></cc:Work></rdf:RDF></metadata><defs
     id="defs15" /><sodipodi:namedview
     pagecolor="#e16426"
     bordercolor="#666666"
     borderopacity="1"
     objecttolerance="10"
     gridtolerance="10"
     guidetolerance="10"
     inkscape:pageopacity="1"
     inkscape:pageshadow="2"
     inkscape:window-width="1867"
     inkscape:window-height="1176"
     id="namedview13"
     showgrid="false"
     inkscape:snap-page="true"
     inkscape:zoom="2.5222837"
     inkscape:cx="73.003736"
     inkscape:cy="34.434079"
     inkscape:window-x="53"
     inkscape:window-y="24"
     inkscape:window-maximized="1"
     inkscape:current-layer="layer2" /><g
     inkscape:groupmode="layer"
     id="layer2"
     inkscape:label="Icon"><path
       style="fill:#ffffff;fill-opacity:1"
       d="M 46.783203 0 A 46.783001 46.783001 0 0 0 0 46.783203 A 46.783001 46.783001 0 0 0 46.783203 93.566406 A 46.783001 46.783001 0 0 0 93.566406 46.783203 A 46.783001 46.783001 0 0 0 46.783203 0 z M 25.822266 25.302734 L 68.333984 25.302734 L 68.333984 40.578125 L 25.822266 40.578125 L 25.822266 25.302734 z M 25.822266 52.867188 L 68.333984 52.867188 L 68.333984 68.144531 L 25.822266 68.144531 L 25.822266 52.867188 z "
       id="circle3" /><path
       style="fill:#944022;fill-opacity:1"
       fill="#944022"
       d="M63.175,20.996H21.658v7.903H62.99c2.296,0,4.16,1.863,4.16,4.159s-1.863,4.157-4.16,4.157H21.658v7.903  h41.517c6.661,0,12.061-5.401,12.061-12.062C75.234,26.397,69.836,20.996,63.175,20.996z"
       id="path9" /><path
       style="fill:#944022;fill-opacity:1"
       fill="#944022"
       d="M63.175,48.446H21.658v7.9H62.99c2.296,0,4.16,1.862,4.16,4.161c0,2.294-1.863,4.157-4.16,4.157H21.658  v7.903h41.517c6.661,0,12.061-5.399,12.061-12.062C75.234,53.848,69.836,48.446,63.175,48.446z"
       id="path11" /></g></svg>